<mxfile host="65bd71144e">
    <diagram id="2ThcgtfJi6gquSRz2HKs" name="Page-1">
        <mxGraphModel dx="5370" dy="4737" grid="1" gridSize="10" guides="1" tooltips="1" connect="1" arrows="1" fold="1" page="1" pageScale="1" pageWidth="1169" pageHeight="827" math="0" shadow="0">
            <root>
                <mxCell id="0"/>
                <mxCell id="1" parent="0"/>
                <mxCell id="2" value="" style="rounded=0;whiteSpace=wrap;html=1;fontSize=20;fontColor=#F1F1F1;strokeColor=#F1F1F1;fillColor=#1F1F1F;" parent="1" vertex="1">
                    <mxGeometry x="319" width="520" height="520" as="geometry"/>
                </mxCell>
                <mxCell id="3" value="&lt;font style=&quot;font-size: 30px;&quot;&gt;Arithmetic Logic Unit&lt;/font&gt;" style="rounded=1;whiteSpace=wrap;html=1;fontFamily=Roboto;fontSource=https%3A%2F%2Ffonts.googleapis.com%2Fcss%3Ffamily%3DRoboto;fontSize=30;fontColor=#1F1F1F;fillColor=#33FF99;strokeColor=none;" parent="1" vertex="1">
                    <mxGeometry x="359" y="40" width="450" height="120" as="geometry"/>
                </mxCell>
                <mxCell id="4" value="Clock" style="rounded=1;whiteSpace=wrap;html=1;fontSize=30;fontFamily=Roboto;fontSource=https%3A%2F%2Ffonts.googleapis.com%2Fcss%3Ffamily%3DRoboto;fontColor=#1F1F1F;fillColor=#66B2FF;strokeColor=none;" parent="1" vertex="1">
                    <mxGeometry x="359" y="200" width="450" height="120" as="geometry"/>
                </mxCell>
                <mxCell id="5" value="Control Unit" style="rounded=1;whiteSpace=wrap;html=1;fontFamily=Roboto;fontSource=https%3A%2F%2Ffonts.googleapis.com%2Fcss%3Ffamily%3DRoboto;fontSize=30;fontColor=#1F1F1F;fillColor=#CC99FF;strokeColor=none;" parent="1" vertex="1">
                    <mxGeometry x="359" y="360" width="450" height="120" as="geometry"/>
                </mxCell>
                <mxCell id="11" value="" style="shape=doubleArrow;direction=south;whiteSpace=wrap;html=1;fontSize=20;fontColor=#F1F1F1;strokeColor=none;fillColor=#FF6666;arrowWidth=0.31199999999999817;arrowSize=0.10888888888888915;" parent="1" vertex="1">
                    <mxGeometry x="690" y="520" width="60" height="200" as="geometry"/>
                </mxCell>
                <mxCell id="13" value="&lt;font face=&quot;Roboto&quot; data-font-src=&quot;https://fonts.googleapis.com/css?family=Roboto&quot; style=&quot;font-size: 30px&quot;&gt;Address&amp;nbsp;Bus&lt;/font&gt;" style="rounded=0;whiteSpace=wrap;html=1;strokeColor=none;fillColor=#fdd900;fontColor=#1F1F1F;" parent="1" vertex="1">
                    <mxGeometry y="600" width="1160" height="80" as="geometry"/>
                </mxCell>
                <mxCell id="14" value="&lt;font data-font-src=&quot;https://fonts.googleapis.com/css?family=Roboto&quot; style=&quot;font-size: 30px;&quot;&gt;Control Bus&lt;/font&gt;" style="rounded=0;whiteSpace=wrap;html=1;strokeColor=none;fillColor=#FF6666;fontColor=#1F1F1F;fontFamily=Roboto;fontSource=https%3A%2F%2Ffonts.googleapis.com%2Fcss%3Ffamily%3DRoboto;fontSize=30;" parent="1" vertex="1">
                    <mxGeometry y="720" width="1160" height="80" as="geometry"/>
                </mxCell>
                <mxCell id="15" value="&lt;font data-font-src=&quot;https://fonts.googleapis.com/css?family=Roboto&quot; style=&quot;font-size: 30px;&quot;&gt;Data Bus&lt;/font&gt;" style="rounded=0;whiteSpace=wrap;html=1;strokeColor=none;fillColor=#00FFFF;fontColor=#1F1F1F;fontFamily=Roboto;fontSource=https%3A%2F%2Ffonts.googleapis.com%2Fcss%3Ffamily%3DRoboto;fontSize=30;" parent="1" vertex="1">
                    <mxGeometry y="-160" width="1160" height="80" as="geometry"/>
                </mxCell>
                <mxCell id="16" value="" style="shape=doubleArrow;direction=south;whiteSpace=wrap;html=1;fontSize=20;fontColor=#F1F1F1;strokeColor=none;fillColor=#00FFFF;" parent="1" vertex="1">
                    <mxGeometry x="560" y="-80" width="50" height="80" as="geometry"/>
                </mxCell>
                <mxCell id="21" value="" style="shape=singleArrow;direction=south;whiteSpace=wrap;html=1;fontSize=20;fontColor=#F1F1F1;strokeColor=none;fillColor=#FDD900;" parent="1" vertex="1">
                    <mxGeometry x="410" y="520" width="70" height="80" as="geometry"/>
                </mxCell>
            </root>
        </mxGraphModel>
    </diagram>
</mxfile>